HIERARCHY
ROOT pelvis
{
  OFFSET 0 100 0
  CHANNELS 6 Xposition Yposition Zposition Zrotation Xrotation Yrotation
  JOINT pelvis_right_femur
  {
    OFFSET -10.78128 -3.44521 -0.5502486
    CHANNELS 3 Zrotation Xrotation Yrotation
    JOINT right_femur_tibia
    {
      OFFSET -0.8047443 -44.0398 -0.1307829
      CHANNELS 3 Zrotation Xrotation Yrotation
      JOINT right_tibia_foot
      {
        OFFSET 3.006224 -47.83518 -5
        CHANNELS 3 Zrotation Xrotation Yrotation
        End Site
        {
          OFFSET 0 -5 15
        }
      }
    }
  }
  JOINT pelvis_left_femur
  {
    OFFSET 10.78128 -3.44521 -0.5502486
    CHANNELS 3 Zrotation Xrotation Yrotation
    JOINT left_femur_tibia
    {
      OFFSET 0.8047443 -44.0398 -0.1307829
      CHANNELS 3 Zrotation Xrotation Yrotation
      JOINT left_tibia_foot
      {
        OFFSET -4.370144 -48.10324 -4.275266
        CHANNELS 3 Zrotation Xrotation Yrotation
        End Site
        {
          OFFSET 0 -5 15
        }
      }
    }
  }
  JOINT pelvis_spine1
  {
    OFFSET 0 6.468898 -3.129235
    CHANNELS 3 Zrotation Xrotation Yrotation
    JOINT spine1
    {
      OFFSET 0 23.15396 4.99043
      CHANNELS 3 Zrotation Xrotation Yrotation
      JOINT spine2
      {
        OFFSET 0 20.79997 -5.064912
        CHANNELS 3 Zrotation Xrotation Yrotation
        JOINT neck
        {
          OFFSET 0 14.38658 9.616178
          CHANNELS 3 Zrotation Xrotation Yrotation
          End Site
          {
            OFFSET 0 20 0
          }
        }
      }
      JOINT right_manubrium
      {
        OFFSET -5.722621 16.35077 3.967754
        CHANNELS 3 Zrotation Xrotation Yrotation
        JOINT right_clavicle
        {
          OFFSET -13.16364 1.694482 -4.693211
          CHANNELS 3 Zrotation Xrotation Yrotation
          JOINT right_humerus
          {
            OFFSET -28.5034 -0.3100689 -2.792744
            CHANNELS 3 Zrotation Xrotation Yrotation
            JOINT right_radius
            {
              OFFSET -25.15693 0.02248979 -1.271978
              CHANNELS 3 Zrotation Xrotation Yrotation
              End Site
              {
                OFFSET -15 0 0
              }
            }
          }
        }
      }
      JOINT left_manubrium
      {
        OFFSET 5.722621 16.35077 3.967754
        CHANNELS 3 Zrotation Xrotation Yrotation
        JOINT left_clavicle
        {
          OFFSET 13.16364 1.694482 -4.693211
          CHANNELS 3 Zrotation Xrotation Yrotation
          JOINT left_humerus
          {
            OFFSET 29.39168 -1.063119 -2.237045
            CHANNELS 3 Zrotation Xrotation Yrotation
            JOINT left_radius
            {
              OFFSET 24.59957 -0.9528479 0.9047498
              CHANNELS 3 Zrotation Xrotation Yrotation
              End Site
              {
                OFFSET 15 -0 -0
              }
            }
          }
        }
      }
    }
  }
}
MOTION
Frames: 13
Frame Time: 0.0416666666667
0 103.5113 0 0.6299443 -0.8475079 -0.04133173 4.753942 -18.12134 9.571801 -0 37.9802 -0 -7.014436 -16.19307 -2.482473 -7.305585 9.624268 -24.41648 -0 4.517677 -0 10.47125 -18.29669 29.12658 -3.746413 -3.030181 4.68068 2.580126 9.269474 -6.929174 1.708732 22.50883 6.752311 3.340213 -25.34479 9.811354 6.118569 -20.31123 11.47445 84.52457 34.66825 -17.20254 -0 0 16.70651 -5.034775 6.397538 3.516144 6.028214 -18.98375 -1.202281 -95.68143 26.85191 23.48742 0 0 -14.20027 9.589503 18.35669 2.908
0.3635083 103.2756 1.141471 0.6150989 -0.8254755 -0.09398063 4.796532 -18.24604 9.528647 -0 37.78293 -0 -7.02098 -16.14287 -2.466114 -7.295441 9.688072 -24.36045 -0 4.567583 -0 10.52846 -18.29744 29.10394 -3.723674 -3.043917 4.679978 2.587626 9.274928 -6.934489 1.717779 22.48949 6.737512 3.328366 -25.36753 9.816987 6.054368 -20.31252 11.46449 84.57231 34.55625 -17.23039 -0 0 16.68457 -5.047496 6.368368 3.494872 6.054163 -19.01255 -1.207131 -95.59253 26.68184 23.38258 0 0 -14.23293 9.78523 18.32962 2.648485
0.6670642 102.8857 2.678179 0.5204913 -0.7395047 -0.07507843 4.645045 -20.27543 8.258488 -0 34.64839 -0 -7.149613 -13.93532 -2.444088 -6.962609 11.0039 -23.08446 -0 4.492032 -0 9.403098 -19.02257 27.5238 -3.52824 -2.838012 4.334291 2.553748 9.393086 -7.23847 1.572398 22.35989 6.918997 3.439437 -25.12271 9.623052 5.613824 -19.90473 11.42546 85.68159 34.1834 -18.39686 -0 0 15.51918 -6.429562 6.888781 4.006075 6.343669 -19.91333 -1.676781 -94.13949 26.48917 21.57289 0 0 -16.30692 9.485065 17.80394 2.935646
0.9461791 102.4259 4.436396 0.3886557 -0.2723194 -0.009613205 4.736456 -21.64375 7.87754 -0 32.60723 -0 -6.925303 -13.22136 -2.460769 -6.761401 11.5106 -22.44144 -0 4.260248 -0 8.532547 -19.4876 26.47002 -3.383289 -2.744022 4.223589 2.590793 9.329406 -7.471965 1.463286 22.12207 7.089448 3.519188 -25.09865 9.57024 5.618126 -19.65466 11.41395 86.01088 34.50443 -19.06462 -0 0 15.14873 -6.961418 7.386257 4.246622 6.513666 -20.30147 -1.731456 -93.59578 26.76982 20.97199 0 0 -17.60912 8.852501 17.40611 3.780179
1.196657 101.8716 6.486073 0.2168493 0.2687189 0.1075704 4.893977 -23.30709 7.404448 -0 30.06387 -0 -6.692395 -12.3651 -2.463336 -6.529549 12.15985 -21.64351 -0 4.186066 -0 7.619627 -19.9593 25.2518 -3.183334 -2.659087 4.099929 2.64193 9.263945 -7.732143 1.362009 21.83356 7.249167 3.58643 -25.10181 9.521052 5.526119 -19.37092 11.38274 86.44638 34.68013 -19.8352 -0 0 14.69785 -7.561852 7.890468 4.479872 6.734884 -20.76195 -1.791077 -92.87418 26.81117 20.1544 0 0 -19.06917 8.45346 16.92219 4.318477
1.425131 101.2388 8.829743 0.008009342 0.9257494 0.2705245 5.159514 -24.94441 7.093479 -0 27.54908 -0 -6.408482 -11.74305 -2.457646 -6.309201 12.70555 -20.91507 -0 4.265705 -0 6.756307 -20.3374 24.07297 -2.960152 -2.609708 4.021006 2.716693 9.162168 -7.983741 1.278198 21.49856 7.393917 3.639379 -25.18051 9.507333 5.475544 -19.1057 11.34467 86.77412 34.91781 -20.54185 -0 0 14.36878 -7.987061 8.37378 4.635917 6.952224 -21.13856 -1.757542 -92.27343 26.80071 19.50744 0 0 -20.3885 8.158884 16.4349 4.752252
1.633377 100.5359 11.51304 -0.2444083 1.647341 0.476259 5.511824 -26.64744 6.805022 -0 24.87835 -0 -6.143301 -11.07955 -2.426436 -6.081127 13.26412 -20.13353 -0 4.681556 -0 5.886723 -20.61646 22.81767 -2.690732 -2.582886 3.953632 2.804904 9.058039 -8.235721 1.209018 21.12585 7.521355 3.68217 -25.31227 9.507561 5.386251 -18.8306 11.29454 87.12417 35.08617 -21.26285 -0 0 14.02442 -8.370886 8.836763 4.753043 7.181032 -21.51149 -1.691585 -91.65352 26.60837 18.85093 0 0 -21.66754 8.065284 15.91617 4.939757
1.825584 99.78885 14.58349 -0.5502212 2.448816 0.7227425 5.965113 -28.34204 6.581481 -0 22.16977 -0 -5.901933 -10.36481 -2.365813 -5.845628 13.78163 -19.31204 -0 5.572006 -0 4.958214 -20.74714 21.45713 -2.370334 -2.578023 3.904854 2.905573 8.951364 -8.486705 1.150099 20.70959 7.640061 3.723073 -25.50526 9.521595 5.296939 -18.54145 11.23742 87.47459 35.25611 -21.99184 -0 0 13.67484 -8.693623 9.303226 4.835406 7.401433 -21.85942 -1.579259 -91.0755 26.30115 18.2777 0 0 -22.86611 8.09091 15.36536 5.001498
2.00673 99.03728 18.10484 -0.9167209 3.307697 1.008996 6.516991 -29.95577 6.409944 -0 19.50749 -0 -5.718769 -9.484999 -2.26998 -5.597852 14.23715 -18.41708 -0 7.180622 -0 3.899422 -20.66108 19.92765 -1.987461 -2.587553 3.870025 3.01119 8.858938 -8.735075 1.097048 20.25366 7.754783 3.770496 -25.75117 9.538722 5.214687 -18.22434 11.17734 87.85516 35.43873 -22.74663 -0 0 13.27709 -8.991476 9.795293 4.903897 7.593278 -22.18834 -1.434782 -90.54671 25.8985 17.81167 0 0 -23.96857 8.187822 14.77143 5.006803
2.183815 98.34197 22.1486 -1.344727 4.182062 1.332624 7.156529 -31.33877 6.297582 -0 17.07293 -0 -5.629716 -8.355352 -2.139679 -5.335161 14.57111 -17.4358 -0 9.800213 -0 2.635798 -20.26079 18.19042 -1.537006 -2.600365 3.848586 3.11103 8.798817 -8.972644 1.04541 19.77193 7.869758 3.833787 -26.0328 9.546242 5.16565 -17.86734 11.12136 88.27995 35.67052 -23.52814 -0 0 12.79919 -9.288303 10.3385 4.980413 7.721719 -22.48693 -1.270798 -90.10453 25.46799 17.51575 0 0 -24.92233 8.262429 14.13323 5.087811
2.364774 97.78367 26.78621 -1.815667 4.964113 1.682812 7.837932 -32.26452 6.219198 -0 15.09344 -0 -5.691378 -6.881462 -1.9831 -5.056386 14.71317 -16.35122 -0 13.77961 -0 1.118515 -19.42709 16.25083 -1.023201 -2.596204 3.835538 3.186026 8.803259 -9.180534 0.9931643 19.30545 7.979876 3.9185 -26.30469 9.521072 5.159382 -17.46055 11.07884 88.77966 35.94124 -24.32448 -0 0 12.18635 -9.634649 10.94337 5.094355 7.742424 -22.74879 -1.124486 -89.76889 25.07037 17.4171 0 0 -25.65688 8.227622 13.46353 5.356856
2.555652 97.4574 32.06743 -2.275656 5.4583 2.028564 8.465889 -32.42387 6.108621 -0 13.80682 -0 -5.968112 -5.018199 -1.820917 -4.764925 14.57286 -15.15038 -0 19.4338 -0 -0.6277738 -18.04956 14.21143 -0.4698668 -2.544238 3.824785 3.207809 8.919136 -9.32455 0.9429862 18.93311 8.063593 4.019794 -26.48172 9.42815 5.175752 -17.00711 11.06302 89.38838 36.16303 -25.09113 -0 0 11.37609 -10.10816 11.58953 5.277129 7.607387 -22.97342 -1.064013 -89.53437 24.74113 17.48302 0 0 -26.08978 8.024142 12.79685 5.865932
2.754793 97.45877 37.98621 -2.623448 5.380881 2.307286 8.901309 -31.45782 5.856553 -0 13.35703 -0 -6.503343 -2.835801 -1.687267 -4.470671 14.02159 -13.81709 -0 26.90916 -0 -2.454697 -16.08205 12.30529 0.07357734 -2.405886 3.818986 3.139918 9.20783 -9.354371 0.9037051 18.77007 8.075967 4.114497 -26.43646 9.220514 5.142393 -16.54246 11.09429 90.12437 36.12908 -25.73078 -0 0 10.32997 -10.8196 12.21121 5.555251 7.279691 -23.17378 -1.192501 -89.35195 24.43748 17.59427 0 0 -26.15604 7.666392 12.18711 6.53093
